Coordinates
version=1
nRows=16
nColumns=42
inDegrees=yes

Units are S.I. units (second, meters, Newtons, ...)
If the header above contains a line with 'inDegrees', this indicates whether rotational values are in degrees (yes) or radians (no).

endheader
time	pelvis_tilt	pelvis_list	pelvis_rotation	pelvis_tx	pelvis_ty	pelvis_tz	hip_flexion_r	hip_adduction_r	hip_rotation_r	knee_angle_r	knee_adduction_r	knee_angle_r_beta	ankle_angle_r	subtalar_angle_r	mtp_angle_r	hip_flexion_l	hip_adduction_l	hip_rotation_l	knee_angle_l	knee_adduction_l	knee_angle_l_beta	ankle_angle_l	subtalar_angle_l	mtp_angle_l	lumbar_extension	lumbar_bending	lumbar_rotation	arm_flex_r	arm_add_r	arm_rot_r	elbow_flex_r	pro_sup_r	wrist_flex_r	wrist_dev_r	arm_flex_l	arm_add_l	arm_rot_l	elbow_flex_l	pro_sup_l	wrist_flex_l	wrist_dev_l
      1.16000000	      8.48159320	      0.58473109	     -4.31805882	     -0.25198578	      0.98557237	      0.26897622	     11.67078557	     -5.18270688	     -6.31009211	     46.21212283	      0.99661805	      0.80655370	     15.97425839	     -5.06945531	     -7.55919099	    -12.91974120	      3.56220655	     -8.41024993	      3.83815584	      2.81725339	      0.06698846	     14.45904092	     18.79100692	     -7.55919099	    -19.09904580	      1.68053466	     -3.83572343	    -12.96375166	    -14.23378891	     12.31499784	     35.24892499	     90.00000001	      0.00000000	      0.00000000	      1.06514354	    -16.76969521	      1.44991676	     44.64672921	     90.00000001	      0.00000000	      0.00000000
      1.17000000	      8.46203913	      0.49236166	     -4.09228632	     -0.23841196	      0.98438970	      0.26909181	     12.45766461	     -4.85221366	     -6.28648448	     42.88178161	      1.38781558	      0.74842828	     15.77140803	     -5.36571471	     -7.55681737	    -14.05644560	      3.50397275	     -8.26537092	      3.33064091	      2.79886005	      0.05813065	     15.01559867	     19.18371037	     -7.55681737	    -19.09296219	      1.86192656	     -4.04121411	    -13.45420488	    -13.88907249	     11.99225049	     35.12306642	     90.00000001	      0.00000000	      0.00000000	      1.80123954	    -17.06099929	      1.28761928	     45.39701744	     90.00000001	      0.00000000	      0.00000000
      1.18000000	      8.45380207	      0.46807127	     -3.90161565	     -0.22481887	      0.98284508	      0.26930947	     13.12055072	     -4.60358274	     -6.32844527	     39.30580764	      1.71268013	      0.68601576	     15.47837489	     -5.44905367	     -7.55441435	    -15.15769416	      3.50797604	     -8.16488596	      2.93269910	      2.78172155	      0.05118526	     15.65203107	     19.60320979	     -7.55441435	    -19.08984608	      1.94731939	     -4.24253214	    -13.89895508	    -13.52471998	     11.68129600	     34.97730987	     90.00000001	      0.00000000	      0.00000000	      2.52290943	    -17.36411109	      1.13784621	     46.14260826	     90.00000001	      0.00000000	      0.00000000
      1.19000000	      8.04679880	      0.94136974	     -3.89904452	     -0.21150267	      0.98012325	      0.26946226	     14.45464558	     -4.89518624	     -6.66216400	     36.02364258	      1.69387129	      0.62873117	     15.20677638	     -5.03294629	     -7.55370470	    -15.59561215	      4.14076428	     -8.28358120	      2.87506812	      2.59563398	      0.05017940	     16.21907917	     19.69207861	     -7.55370470	    -18.62860201	      1.49020432	     -4.43473883	    -14.35374134	    -13.20675582	     11.65694598	     34.91591428	     90.00000001	      0.00000000	      0.00000000	      3.20662876	    -17.69722926	      1.02888402	     46.78983398	     90.00000001	      0.00000000	      0.00000000
      1.20000000	      8.51655364	      0.63347284	     -3.58368510	     -0.19753882	      0.97874349	      0.26996543	     14.01477544	     -4.35424066	     -6.77665549	     31.51652614	      2.05377078	      0.55006715	     14.84674849	     -4.51167164	     -7.55161836	    -17.31801342	      3.73112526	     -8.01385190	      2.41780247	      2.72981750	      0.04219861	     17.09826120	     20.43775955	     -7.55161836	    -19.15473781	      1.83636756	     -4.67624506	    -14.63869742	    -12.75088445	     11.10066429	     34.61773657	     90.00000001	      0.00000000	      0.00000000	      3.93016530	    -17.98189464	      0.84690842	     47.60607434	     90.00000001	      0.00000000	      0.00000000
      1.21000000	      8.37050468	      0.95628910	     -3.49951494	     -0.18406013	      0.97594256	      0.27023722	     14.57593260	     -4.53075325	     -6.97754903	     27.49068598	      2.25134100	      0.47980298	     14.33087180	     -3.55481513	     -7.55032742	    -18.09473993	      4.12273120	     -7.92658244	      2.33290881	      2.65599880	      0.04071694	     17.90929984	     20.78148037	     -7.55032742	    -18.99403832	      1.52586956	     -4.91168131	    -14.93738584	    -12.37342918	     10.89952920	     34.42351447	     90.00000001	      0.00000000	      0.00000000	      4.62317218	    -18.29334048	      0.75886667	     48.27580443	     90.00000001	      0.00000000	      0.00000000
      1.22000000	      8.33312767	      1.26351555	     -3.42684174	     -0.17039389	      0.97302599	      0.27065168	     14.84607467	     -4.66975145	     -7.28395168	     23.25615014	      2.37347292	      0.40589639	     13.76792012	     -2.30417083	     -7.54918178	    -18.98823200	      4.49276030	     -7.81861380	      2.30075930	      2.57728920	      0.04015583	     18.68550038	     21.13754210	     -7.54918178	    -18.93763035	      1.20715959	     -5.13465464	    -15.22234851	    -11.99119215	     10.65025210	     34.24434285	     90.00000001	      0.00000000	      0.00000000	      5.28224925	    -18.59297799	      0.65329399	     48.94826992	     90.00000001	      0.00000000	      0.00000000
      1.23000000	      8.70728614	      1.26264780	     -3.25255065	     -0.15629639	      0.97052254	      0.27143280	     14.35287697	     -4.39137024	     -7.69942383	     18.67452464	      2.30815206	      0.32593194	     13.18178064	     -1.02411548	     -7.54735424	    -20.43934109	      4.40543316	     -7.93166394	      2.19321485	      2.69118250	      0.03827882	     19.41665616	     21.62982088	     -7.54735424	    -19.32650435	      1.17306778	     -5.33792054	    -15.48103959	    -11.55069197	     10.16988266	     34.09846656	     90.00000001	      0.00000000	      0.00000000	      5.95192036	    -18.89560302	      0.55260544	     49.61943176	     90.00000001	      0.00000000	      0.00000000
      1.24000000	      8.29923870	      1.93434647	     -3.24212787	     -0.14273214	      0.96650748	      0.27167667	     15.15068472	     -4.95401341	     -8.07608416	     14.96718255	      2.39415592	      0.26122662	     12.35540357	      0.49524351	     -7.54661527	    -20.80472018	      5.24024371	     -7.87723884	      2.33217853	      2.42337922	      0.04070419	     20.17088607	     21.78330995	     -7.54661527	    -18.85634799	      0.48995826	     -5.66712211	    -15.74449890	    -11.22317614	     10.06757983	     34.08892798	     90.00000001	      0.00000000	      0.00000000	      6.50463125	    -19.22156307	      0.49674145	     50.13594311	     90.00000001	      0.00000000	      0.00000000
      1.25000000	      8.81708383	      1.99759016	     -2.99046590	     -0.12844015	      0.96389093	      0.27232054	     14.20603247	     -4.87105955	     -8.14407842	     10.33075557	      2.58922460	      0.18030570	     11.68838308	      2.40295151	     -7.54493801	    -22.40498827	      5.16429897	     -7.80647241	      2.27789645	      2.57907943	      0.03975679	     20.88276179	     22.29762727	     -7.54493801	    -19.40049924	      0.40901170	     -5.94603603	    -15.87734063	    -10.75555333	      9.55270861	     33.82199532	     90.00000001	      0.00000000	      0.00000000	      7.17074162	    -19.45587797	      0.42381177	     50.81901561	     90.00000001	      0.00000000	      0.00000000
      1.26000000	      8.45628523	      2.65246016	     -2.94842091	     -0.11450252	      0.95968722	      0.27259257	     14.86136142	     -5.52487835	     -8.46162468	      7.13695452	      2.89418110	      0.12456335	     10.75545706	      4.10627293	     -7.54420458	    -22.81166897	      5.93339024	     -7.61985342	      2.53710480	      2.35429537	      0.04428083	     21.63306115	     22.44724155	     -7.54420458	    -18.95043723	     -0.26256366	     -6.24841855	    -16.14363682	    -10.43692183	      9.44091387	     33.84225319	     90.00000001	      0.00000000	      0.00000000	      7.67814363	    -19.70115702	      0.38337040	     51.25851035	     90.00000001	      0.00000000	      0.00000000
      1.27000000	      8.74190972	      2.93548170	     -2.76737628	     -0.10012095	      0.95648307	      0.27322615	     14.54255349	     -5.71477899	     -8.81917717	      3.97041935	      2.98872530	      0.06929689	     10.18882605	      6.01087281	     -7.54278662	    -24.06140066	      6.11826750	     -7.48348376	      2.67544864	      2.41628667	      0.04669539	     22.15902712	     22.75685734	     -7.54278662	    -19.22684781	     -0.57162073	     -6.54281777	    -16.27932899	    -10.03623711	      9.03345021	     33.69176426	     90.00000001	      0.00000000	      0.00000000	      8.22060828	    -19.93261387	      0.34284980	     51.81932823	     90.00000001	      0.00000000	      0.00000000
      1.28000000	      8.59650484	      3.47445140	     -2.68046697	     -0.08604237	      0.95264763	      0.27357651	     15.13696278	     -6.25599854	     -9.31063823	      2.06117556	      3.18294025	      0.03597430	      9.70423538	      7.77533139	     -7.54197570	    -24.71078494	      6.68923983	     -7.27491635	      2.98440497	      2.26770373	      0.05208769	     22.74451155	     22.90015139	     -7.54197570	    -19.05204845	     -1.11475770	     -6.82322501	    -16.41766601	     -9.75259585	      8.88528997	     33.67694216	     90.00000001	      0.00000000	      0.00000000	      8.72728193	    -20.09075283	      0.28084202	     52.19892913	     90.00000001	      0.00000000	      0.00000000
      1.29000000	      8.57513560	      3.81773699	     -2.46834694	     -0.07144418	      0.94913800	      0.27397751	     15.95425455	     -6.74870788	    -11.67787609	      1.60994631	      3.49369503	      0.02809886	     10.47078896	     12.30681997	     -7.53934426	    -25.53302901	      6.94551458	     -7.19569906	      3.32961298	      2.19472153	      0.05811271	     23.20200092	     23.14669496	     -7.53934426	    -18.97765377	     -1.43460378	     -7.17489148	    -16.51174886	     -9.41190827	      8.44300852	     33.59898660	     90.00000001	      0.00000000	      0.00000000	      9.10104059	    -20.24449922	      0.25875774	     52.55135833	     90.00000001	      0.00000000	      0.00000000
      1.30000000	      8.51850197	      4.06483018	     -2.25381806	     -0.05687617	      0.94584170	      0.27441478	     16.65401045	     -7.07662664	    -12.95406330	      1.34090339	      3.72123645	      0.02340318	     10.81633324	     14.89057905	     -7.53702383	    -26.26885727	      7.07340891	     -7.11403565	      3.75440483	      2.12327640	      0.06552673	     23.55769934	     23.36896915	     -7.53702383	    -18.89639271	     -1.64330449	     -7.48814074	    -16.57396784	     -9.20388390	      8.37450016	     33.57180690	     90.00000001	      0.00000000	      0.00000000	      9.45211234	    -20.30697240	      0.17004191	     52.85420097	     90.00000001	      0.00000000	      0.00000000
      1.31000000	      8.33700526	      4.16543553	     -2.16995083	     -0.04208663	      0.94260687	      0.27516473	     17.36556909	     -7.09600846	    -12.99932211	      1.27664435	      3.79454029	      0.02228165	     10.80106580	     14.95483010	     -7.53685070	    -26.89778539	      7.06888292	     -7.13466046	      4.14936251	      2.09748480	      0.07242004	     23.61194946	     23.30966283	     -7.53685070	    -18.65461245	     -1.72702642	     -7.59880078	    -16.64762576	     -9.07072424	      8.39708797	     33.57634850	     90.00000001	      0.00000000	      0.00000000	      9.72757487	    -20.30213023	      0.13021641	     53.00654000	     90.00000001	      0.00000000	      0.00000000
